<svg xmlns="http://www.w3.org/2000/svg" version="1.1" xmlns:xlink="http://www.w3.org/1999/xlink" xmlns:svgjs="http://svgjs.dev/svgjs" viewBox="0 0 1920 1080"><rect width="1920" height="1080" fill="#f60f1e"></rect><g transform="matrix(0.5750000000000001,0.9959292143521044,-0.9959292143521044,0.5750000000000001,921.3839479532003,-669.3722150627555)"><path d="M0,-1080C-19.12373787106957,-1010.5209158468091,-119.51954090093992,-815.1004882186883,-114.74242722641742,-663.1254950808545C-109.96531355189492,-511.1505019430208,6.881176533058909,-334.81677994019935,28.66268204713498,-168.15004117299753C50.44418756121105,-1.4833024057956834,18.435488040104598,188.11140688521377,15.946605858038993,336.8749375223565C13.457723675973389,485.6384681594992,14.361332038684415,583.590536362448,13.729388954741353,724.4311426498589C13.09744587079829,865.2717489372698,28.99499802808748,1010.8463233595803,12.154947354380624,1181.918575246822C-4.685103319326231,1352.9908271340637,-85.28509052843634,1587.8510831811125,-87.31091508749978,1750.8646539733088C-89.33673964656322,1913.8782247655051,-14.551819181249963,2091.810775662218,0,2160L 1920 2160 L 1920 -1080 Z" fill="url(&quot;#SvgjsLinearGradient1036&quot;)"></path><path d="M160,-1080C143.0476684996279,-987.490702694738,79.48982984535928,-711.355965247058,58.28601099776739,-524.9442161684285C37.0821921501755,-338.53246708979907,2.7959345701329816,-154.3641093061631,32.77708691444866,38.470494471776306C62.758239258764334,231.3050982497157,220.84042640459518,465.9099654275981,238.17292506366147,632.0634064992081C255.50542372272776,798.2168475708181,142.59039166652147,854.4887900565451,136.7720788688464,1035.3911409014365C130.95376607117132,1216.293491746328,199.39172808908535,1530.0427017187963,203.26304827761095,1717.4775115685568C207.13436846613655,1904.9123214183173,167.2105080462685,2086.246251928093,160,2160L 1920 2160 L 1920 -1080 Z" fill="url(&quot;#SvgjsLinearGradient1037&quot;)"></path><path d="M320,-1080C309.10653688755986,-1000.0301916406975,273.1205501816502,-737.6828605136136,254.63922132535924,-600.1811498441848C236.1578924690683,-462.679439174756,181.16837520193445,-378.06046979839346,209.11202686225425,-254.98973598342735C237.05567852257406,-131.91900216846125,399.8747597642444,25.27618259599592,422.3011312872781,138.24325304561182C444.7275028103118,251.21032349522773,372.0395026202958,307.8200232035377,343.6702560004566,422.812686714268C315.3010093806174,537.8053502249984,264.2819766504949,652.5032776132904,252.08565156824284,828.1992341099939C239.88932648599075,1003.8951906066974,269.0902042374378,1330.5864560178557,270.49230550694415,1476.9884256944888C271.8944067764505,1623.390395371122,252.24697676977172,1592.7757897855404,260.49825918528103,1706.6110521697922C268.74954160079034,1820.446314554044,310.08304319754683,2084.435175361632,320,2160L 1920 2160 L 1920 -1080 Z" fill="url(&quot;#SvgjsLinearGradient1038&quot;)"></path><path d="M480,-1080C497.73170167804057,-971.435413273267,567.5986522446877,-665.5271553248817,586.3902100682435,-428.61247963960255C605.1817678917993,-191.69780395432332,624.6517224818643,120.92907370981118,592.7493469413345,341.4880541116753C560.8469714008046,562.0470345135394,414.46220250057826,714.1661451727254,394.9759568250642,894.7414027715822C375.48971114955015,1075.316660370439,461.6611990257607,1214.0631668334133,475.83187288825,1424.9395997048164C490.0025467507393,1635.8160325762194,479.30531214804165,2037.489933284136,480,2160L 1920 2160 L 1920 -1080 Z" fill="url(&quot;#SvgjsLinearGradient1039&quot;)"></path><path d="M640,-1080C635.0976470647946,-971.8306330457692,593.663440705582,-614.487483859011,610.5858823887679,-430.9837982746154C627.5083240719538,-247.48011269021984,721.9668936497989,-156.32243364634058,741.5346500991154,21.0221135063735C761.102406548432,198.3666606590876,745.8354893967835,473.8009522215092,727.9924210846671,633.0834846416692C710.1493527725506,792.3660170618292,645.2763841329374,792.0867546343144,634.4762402264165,976.7173080273333C623.6760963198956,1161.3478614203523,662.2709310166108,1543.6530230043381,663.1915576455414,1740.8668049997825C664.1121842744719,1938.080586995227,643.8652596075902,2090.144467499964,640,2160L 1920 2160 L 1920 -1080 Z" fill="url(&quot;#SvgjsLinearGradient1040&quot;)"></path><path d="M800,-1080C809.1333892866907,-987.4908357362879,873.7127929623798,-733.3471165678916,854.8003357201442,-524.9450144177272C835.8878784779085,-316.54291226756277,682.673637255228,-76.10479485740541,686.5252565465864,170.41261290098646C690.3768758379449,416.93002065937833,845.8515124381944,716.8584663642224,877.910051468295,954.159432132624C909.9685904983957,1191.4603979010258,891.8614993052394,1393.2449795335,878.8764907271902,1594.2184075113962C865.8914821491411,1795.1918354892923,813.146081787865,2065.703067918566,800,2160L 1920 2160 L 1920 -1080 Z" fill="url(&quot;#SvgjsLinearGradient1041&quot;)"></path><path d="M960,-1080C948.8128127662127,-992.9497925950484,901.5609784712493,-749.1149943916652,892.8768765972762,-557.6987555702906C884.1927747233032,-366.282516748916,916.4268929078617,-130.21095074766762,907.8953887561618,68.4974329282474C899.3638846044619,267.20581660416246,842.2092265744972,462.74943193524484,841.6878516870765,634.5515464851997C841.1664767996559,806.3536610351545,877.2845297036132,913.974606476605,904.767139431638,1099.310120227976C932.2497491596629,1284.6456339793472,997.3780332938317,1569.7829823647553,1006.5835100552254,1746.564628993426C1015.7889868166191,1923.3462756220965,967.7639183425375,2091.0941048322375,960,2160L 1920 2160 L 1920 -1080 Z" fill="url(&quot;#SvgjsLinearGradient1042&quot;)"></path><path d="M1120,-1080C1111.1156295867368,-986.3497408212977,1054.0373868404736,-738.5506211932048,1066.693777520421,-518.0984449277861C1079.3501682003684,-297.64626866236733,1193.9461549062075,-3.407155805938089,1195.9383440796842,242.7130575925126C1197.9305332531608,488.8332709909633,1097.7692465566902,749.1052803084463,1078.6469125612805,958.6228354629179C1059.5245785658708,1168.1403906173896,1074.3121588674387,1299.5888610964953,1081.2043401072253,1499.8183885193423C1088.096521347012,1700.0479159421893,1113.5340566845375,2049.96973141989,1120,2160L 1920 2160 L 1920 -1080 Z" fill="url(&quot;#SvgjsLinearGradient1043&quot;)"></path><path d="M1280,-1080C1289.9060287105558,-1018.3842208061382,1321.8669479314697,-831.1187053269068,1339.436172263335,-710.3053248368287C1357.0053965952004,-589.4919443467506,1378.940582875578,-502.83531490169673,1385.4153459911925,-355.11971705953135C1391.890109106807,-207.40411921736595,1389.4381177196508,31.778431929767265,1378.284750957022,175.98826221616378C1367.1313841943931,320.19809250256026,1347.8922999536999,391.7826733037324,1318.49514541542,510.1392646588477C1289.09799087714,628.495856013963,1202.7712343869923,743.8409960326926,1201.9018237273428,886.1278103468557C1201.0324130676934,1028.4146246610187,1280.6862493519357,1229.4130012173127,1313.2786814575231,1363.860150543826C1345.8711135631106,1498.3072998703392,1403.0028632704548,1560.1207313965729,1397.4564163608677,1692.8107063059351C1391.9099694512806,1825.5006812152974,1299.576069393478,2082.1351177176557,1280,2160L 1920 2160 L 1920 -1080 Z" fill="url(&quot;#SvgjsLinearGradient1044&quot;)"></path><path d="M1440,-1080C1455.1821154277418,-964.0102624758832,1510.5443295229927,-588.2183407194198,1531.0926925664505,-384.06157485529906C1551.6410556099083,-179.9048089911784,1563.1058430701382,-84.36440659766549,1563.2901782607464,144.94059518472386C1563.4745134513546,374.2455969671132,1545.6540057540283,750.5491868934184,1532.1987037100992,991.768435839037C1518.74340166617,1232.9876847846556,1497.924816615522,1397.5508281649413,1482.5583659971724,1592.256088858435C1467.1919153788226,1786.9613495519288,1447.0930609995287,2065.376014809739,1440,2160L 1920 2160 L 1920 -1080 Z" fill="url(&quot;#SvgjsLinearGradient1045&quot;)"></path><path d="M1600,-1080C1591.4394628948583,-1019.9690074059528,1537.2383725805387,-867.8528742105376,1548.63677736915,-719.8140444357165C1560.0351821577613,-571.7752146608954,1647.8864084068673,-361.2184225737801,1668.3904287316675,-191.76702135107325C1688.8944490564677,-22.315620128366362,1671.4691782588243,131.93494439517426,1671.6608993179507,296.894362900525C1671.852620377077,461.8537814058757,1682.5071765804662,636.8646763748094,1669.5407550864263,797.9894896810312C1656.5743335923864,959.1143029872529,1613.8051895725002,1121.7530854345437,1593.862370353711,1263.6432427378559C1573.9195511349217,1405.533400041168,1548.8609014993085,1499.937640623881,1549.88383977369,1649.330433500905C1550.9067780480714,1798.723226377929,1591.6473066289484,2074.888405583484,1600,2160L 1920 2160 L 1920 -1080 Z" fill="url(&quot;#SvgjsLinearGradient1046&quot;)"></path><path d="M1760,-1080C1739.3935338497977,-975.5655910416008,1631.2938543677114,-641.2649497803442,1636.3612030987858,-453.39354624960464C1641.4285518298602,-265.5221427188651,1761.4422108227016,-105.81612373060656,1790.4040923864459,47.228421184437025C1819.3659739501902,200.2729660994806,1801.9412541410263,296.8780480621973,1810.132492481252,464.87372324065694C1818.3237308214777,632.8693984191166,1829.2167098439688,847.7842433767455,1839.5515224278001,1055.2024722551948C1849.8863350116314,1262.6207011336442,1885.3999550555397,1525.2501752205524,1872.1413679842397,1709.3830965113532C1858.8827809129396,1893.516017802154,1778.6902279973733,2084.897182751892,1760,2160L 1920 2160 L 1920 -1080 Z" fill="url(&quot;#SvgjsLinearGradient1047&quot;)"></path></g><defs><linearGradient x1="0.1" y1="0" x2="0" y2="1" id="SvgjsLinearGradient1036"><stop stop-color="#f60f1e" offset="0"></stop><stop stop-color="#f60f44" offset="0"></stop></linearGradient><linearGradient x1="0.1" y1="0" x2="0" y2="1" id="SvgjsLinearGradient1037"><stop stop-color="#f72a37" offset="0"></stop><stop stop-color="#f72a59" offset="0.08333333333333333"></stop></linearGradient><linearGradient x1="0.1" y1="0" x2="0" y2="1" id="SvgjsLinearGradient1038"><stop stop-color="#f84551" offset="0"></stop><stop stop-color="#f8456f" offset="0.16666666666666666"></stop></linearGradient><linearGradient x1="0.1" y1="0" x2="0" y2="1" id="SvgjsLinearGradient1039"><stop stop-color="#f9616a" offset="0"></stop><stop stop-color="#f96183" offset="0.25"></stop></linearGradient><linearGradient x1="0.1" y1="0" x2="0" y2="1" id="SvgjsLinearGradient1040"><stop stop-color="#fa7c84" offset="0"></stop><stop stop-color="#fa7c99" offset="0.3333333333333333"></stop></linearGradient><linearGradient x1="0.1" y1="0" x2="0" y2="1" id="SvgjsLinearGradient1041"><stop stop-color="#fb979d" offset="0"></stop><stop stop-color="#fb97ae" offset="0.4166666666666667"></stop></linearGradient><linearGradient x1="0.1" y1="0" x2="0" y2="1" id="SvgjsLinearGradient1042"><stop stop-color="#fcb2b7" offset="0"></stop><stop stop-color="#fcb2c3" offset="0.5"></stop></linearGradient><linearGradient x1="0.1" y1="0" x2="0" y2="1" id="SvgjsLinearGradient1043"><stop stop-color="#fdcdd0" offset="0"></stop><stop stop-color="#fdcdd8" offset="0.5833333333333334"></stop></linearGradient><linearGradient x1="0.1" y1="0" x2="0" y2="1" id="SvgjsLinearGradient1044"><stop stop-color="#fee8ea" offset="0"></stop><stop stop-color="#fee8ee" offset="0.6666666666666666"></stop></linearGradient><linearGradient x1="0.1" y1="0" x2="0" y2="1" id="SvgjsLinearGradient1045"><stop stop-color="#ffffff" offset="0"></stop><stop stop-color="#ffffff" offset="0.75"></stop></linearGradient><linearGradient x1="0.1" y1="0" x2="0" y2="1" id="SvgjsLinearGradient1046"><stop stop-color="#ffffff" offset="0"></stop><stop stop-color="#ffffff" offset="0.8333333333333334"></stop></linearGradient><linearGradient x1="0.1" y1="0" x2="0" y2="1" id="SvgjsLinearGradient1047"><stop stop-color="#ffffff" offset="0"></stop><stop stop-color="#ffffff" offset="0.9166666666666666"></stop></linearGradient></defs></svg>