<svg xmlns="http://www.w3.org/2000/svg" version="1.1" xmlns:xlink="http://www.w3.org/1999/xlink" xmlns:svgjs="http://svgjs.dev/svgjs" viewBox="0 0 1920 1080"><rect width="1920" height="1080" fill="#999494"></rect><g transform="matrix(7.04171909509728e-17,1.15,-1.15,7.04171909509728e-17,1527.366065979004,-502.3209758758544)"><path d="M0,-1080C4.181909213917938,-956.338271460422,42.9606044884826,-541.3121909093451,25.091455283507628,-338.0296287625323C7.222306078532654,-134.74706661571952,-110.11792942909092,-67.84800313014333,-107.21489522984984,139.69537288087656C-104.31186103060877,347.2387488918964,16.2193854795545,695.680552910017,42.50966047895412,907.230627303587C68.79993547835373,1118.780701697157,57.611698179706885,1200.2009237928942,50.52675476654787,1408.9958192422964C43.44181135338885,1617.7907146916987,8.421125794424645,2034.8326365403827,0,2160L 1920 2160 L 1920 -1080 Z" fill="url(&quot;#SvgjsLinearGradient1072&quot;)"></path><path d="M160,-1080C180.73540355016928,-991.3643140190024,293.0234579409436,-703.776206743952,284.41242130101574,-548.1858841140147C275.80138466108787,-392.5955614840774,113.48923473573426,-268.21122069581963,108.33378016043281,-146.45806422037634C103.17832558513136,-24.70490774493304,237.80253657897666,85.66743119479015,253.47969384920708,182.33305473864516C269.15685111943753,278.9986782825002,207.39913266483063,303.9921711604253,202.3967237818154,433.5356770427537C197.3943148988002,563.0791829250821,249.7490469331351,810.1460825018678,223.4652405511158,959.5940900326154C197.18143416909652,1109.042097563363,36.27921993218502,1201.5244637283392,44.693885489699596,1330.2237222272397C53.10855104721417,1458.9229807261402,254.7355481444865,1593.4935947305578,273.95323389620324,1731.7896410260178C293.17091964791996,1870.0856873214777,178.9922056493672,2088.6316068376696,160,2160L 1920 2160 L 1920 -1080 Z" fill="url(&quot;#SvgjsLinearGradient1073&quot;)"></path><path d="M320,-1080C323.93284229896676,-923.7118407839187,344.2197747430018,-396.51457312046045,343.59705379380046,-142.2710447035119C342.97433284459913,111.97248371343662,310.3973685211141,193.29750650220964,316.26367430479206,445.46117050169113C322.12998008847,697.6248345011726,378.1721675466668,1084.9544677103254,378.7948884958681,1370.710939293377C379.41760944506944,1656.4674108764284,329.7991480826447,2028.4518232155629,320,2160L 1920 2160 L 1920 -1080 Z" fill="url(&quot;#SvgjsLinearGradient1074&quot;)"></path><path d="M480,-1080C488.77507289586754,-1010.7707257730019,536.0932939141518,-845.0725811401481,532.6504373752052,-664.6243546380115C529.2075808362587,-484.1761281358748,475.40391011808777,-216.98508967386076,459.34286076632094,2.6893590128203186C443.2818114145541,222.3638076995014,416.7636059394064,477.2300179246148,436.2841412646044,653.4223374820749C455.8046765898024,829.614657039535,584.7366470616463,885.5647303654139,576.4660727175088,1059.843276357581C568.1954983733714,1234.1218223497483,402.7383739860313,1515.7341594946747,386.66069519977987,1699.093613435078C370.5830164135284,1882.4530673754812,464.4434491999633,2083.1822689058463,480,2160L 1920 2160 L 1920 -1080 Z" fill="url(&quot;#SvgjsLinearGradient1075&quot;)"></path><path d="M640,-1080C623.0674970012451,-988.831751363882,541.030338416316,-697.2631564904519,538.4049820074708,-532.9905081832918C535.7796255986257,-368.7178598761317,602.6910310050297,-254.60419518873252,624.2478615469292,-94.36411015703942C645.8046920888288,65.87597487465368,650.5901046851658,233.65752712901192,667.745965258868,428.4500020068667C684.9018258325701,623.2424768847216,747.8018107853139,869.1526393142497,727.183024989142,1074.3907391100893C706.5642391929701,1279.628838905929,558.5637546466938,1478.9437239669196,544.0332504818368,1659.8786007819047C529.5027463169798,1840.8134775968897,624.0055417469728,2076.6464334636507,640,2160L 1920 2160 L 1920 -1080 Z" fill="url(&quot;#SvgjsLinearGradient1076&quot;)"></path><path d="M800,-1080C812.5013251655486,-941.5075361159751,892.1370185968256,-504.59071658751714,875.0079509932914,-249.04521669585063C857.8788833897572,6.500283195815854,716.5799651943629,165.97947023266386,697.2255943787948,453.2729993499989C677.8712235632266,740.5665284673339,741.7526584963484,1190.2614578998257,758.8817260998826,1474.7159580081593C776.0107937034168,1759.170458116493,793.1469543499804,2045.7859930013599,800,2160L 1920 2160 L 1920 -1080 Z" fill="url(&quot;#SvgjsLinearGradient1077&quot;)"></path><path d="M960,-1080C942.7080065052319,-967.0809750887179,842.5609289323994,-620.8831881675545,856.2480390313915,-402.48585053230744C869.9351491303836,-184.08851289706033,1005.0755621803123,16.43490235981264,1042.1226605939526,230.38402581148256C1079.1697590075928,444.33314926315245,1082.450075712902,680.352697466238,1078.530629513233,881.208890177712C1074.611183313564,1082.065082889186,1038.3610883148106,1222.3893304432784,1018.6059833959384,1435.5211820803263C998.8508784770663,1648.6530337173742,969.7676638993231,2039.2535303467212,960,2160L 1920 2160 L 1920 -1080 Z" fill="url(&quot;#SvgjsLinearGradient1078&quot;)"></path><path d="M1120,-1080C1123.9996733720136,-941.4775352825752,1156.9967558253502,-513.0455043458704,1143.9980402320816,-248.8652116954516C1130.999324638813,15.315080954967243,1055.842121168179,237.02548748229606,1042.0077064403883,505.08175590251284C1028.1732917125978,773.1380243227296,1047.9928362720698,1083.6526914762678,1060.9915518653384,1359.472398825849C1073.990267458607,1635.2921061754303,1110.165258644223,2026.5787331376414,1120,2160L 1920 2160 L 1920 -1080 Z" fill="url(&quot;#SvgjsLinearGradient1079&quot;)"></path><path d="M1280,-1080C1282.2975869340644,-1022.2572166993453,1306.8186739970997,-872.7309066420446,1293.7855216043865,-733.5433001960719C1280.7523692116733,-594.3556937500991,1216.3079284652931,-388.79100609179363,1201.8010856437213,-244.87436132416366C1187.2942428221495,-100.95771655653371,1200.0568013540005,18.015908563628784,1206.744464674956,129.95656840970793C1213.4321279959113,241.89722825578707,1232.8427983489537,274.5744852808739,1241.9270655694536,426.76959775231126C1251.0113327899535,578.9647102237486,1250.1199919435562,891.9958046006547,1261.2500679979557,1043.127243238332C1272.3801440523553,1194.2586818760096,1300.5883293672994,1211.2463506214863,1308.7075218958505,1333.5582295783759C1316.8267144244016,1455.8701085352654,1314.749810151904,1639.2582219093988,1309.9652231692623,1776.9985169796694C1305.1806361866206,1914.73881204994,1284.9942038615436,2096.1664194966115,1280,2160L 1920 2160 L 1920 -1080 Z" fill="url(&quot;#SvgjsLinearGradient1080&quot;)"></path><path d="M1440,-1080C1450.1794173106912,-1014.9550163864335,1481.9160411940743,-816.2999775096328,1501.0765038641473,-689.7300983186012C1520.2369665342203,-563.1602191275697,1560.1850393325608,-458.0935838237821,1554.962776020438,-320.5807248538108C1549.7405127083152,-183.0678658838395,1470.609665459517,2.3742397093124055,1469.74292399141,135.3470555012267C1468.876182523303,268.319871293141,1571.5919141127356,328.0965566411411,1549.7623272117958,477.25616989767497C1527.932740310856,626.4157831542088,1341.9180660315315,876.5709064682067,1338.765402585771,1030.3047350404302C1335.6127391400105,1184.0385636126537,1512.8068150244676,1289.7692005674498,1530.8463465372326,1399.6591413310157C1548.8858780499977,1509.5490820945815,1462.1436494185673,1562.9209031769951,1447.002591662362,1689.644379621826C1431.8615339061566,1816.3678560666567,1441.1670986103936,2081.6073966036374,1440,2160L 1920 2160 L 1920 -1080 Z" fill="url(&quot;#SvgjsLinearGradient1081&quot;)"></path><path d="M1600,-1080C1609.8279441775417,-959.2553397193609,1656.4670344977226,-591.4486220933203,1658.9676650652495,-355.53203831616565C1661.4682956327765,-119.61545453901098,1631.2173368555225,121.67500467307585,1615.0037834051623,335.4995026629282C1598.790229954802,549.3240006527806,1575.8470708445782,727.6018577295874,1561.686344363088,927.4149496229483C1547.5256178815978,1127.228041516309,1523.6538152434027,1328.9472122935842,1530.0394245162215,1534.3780540230928C1536.4250337890403,1739.8088957526013,1588.339904086037,2055.7296756705155,1600,2160L 1920 2160 L 1920 -1080 Z" fill="url(&quot;#SvgjsLinearGradient1082&quot;)"></path><path d="M1760,-1080C1777.4494077784789,-945.9728973152301,1855.7909588164152,-550.3391199814115,1864.696446670873,-275.83738389138034C1873.6019345253308,-1.3356478013491824,1826.0414754244096,303.5863812701353,1813.432927126746,567.010416540187C1800.8243788290827,830.4344518102387,1797.9506447393499,1039.2085638189606,1789.045156884892,1304.7068277289295C1780.1396690304343,1570.2050916388985,1764.8408594808154,2017.4511379548217,1760,2160L 1920 2160 L 1920 -1080 Z" fill="url(&quot;#SvgjsLinearGradient1083&quot;)"></path></g><defs><linearGradient x1="0.1" y1="0" x2="0" y2="1" id="SvgjsLinearGradient1072"><stop stop-color="#999494" offset="0"></stop><stop stop-color="#999495" offset="0"></stop></linearGradient><linearGradient x1="0.1" y1="0" x2="0" y2="1" id="SvgjsLinearGradient1073"><stop stop-color="#a29d9d" offset="0"></stop><stop stop-color="#a29d9e" offset="0.08333333333333333"></stop></linearGradient><linearGradient x1="0.1" y1="0" x2="0" y2="1" id="SvgjsLinearGradient1074"><stop stop-color="#aaa6a6" offset="0"></stop><stop stop-color="#aaa6a7" offset="0.16666666666666666"></stop></linearGradient><linearGradient x1="0.1" y1="0" x2="0" y2="1" id="SvgjsLinearGradient1075"><stop stop-color="#b3afaf" offset="0"></stop><stop stop-color="#b3afb0" offset="0.25"></stop></linearGradient><linearGradient x1="0.1" y1="0" x2="0" y2="1" id="SvgjsLinearGradient1076"><stop stop-color="#bbb8b8" offset="0"></stop><stop stop-color="#bbb8b8" offset="0.3333333333333333"></stop></linearGradient><linearGradient x1="0.1" y1="0" x2="0" y2="1" id="SvgjsLinearGradient1077"><stop stop-color="#c4c1c1" offset="0"></stop><stop stop-color="#c4c1c1" offset="0.4166666666666667"></stop></linearGradient><linearGradient x1="0.1" y1="0" x2="0" y2="1" id="SvgjsLinearGradient1078"><stop stop-color="#cccaca" offset="0"></stop><stop stop-color="#cccaca" offset="0.5"></stop></linearGradient><linearGradient x1="0.1" y1="0" x2="0" y2="1" id="SvgjsLinearGradient1079"><stop stop-color="#d5d3d3" offset="0"></stop><stop stop-color="#d5d3d3" offset="0.5833333333333334"></stop></linearGradient><linearGradient x1="0.1" y1="0" x2="0" y2="1" id="SvgjsLinearGradient1080"><stop stop-color="#dedcdc" offset="0"></stop><stop stop-color="#dedcdc" offset="0.6666666666666666"></stop></linearGradient><linearGradient x1="0.1" y1="0" x2="0" y2="1" id="SvgjsLinearGradient1081"><stop stop-color="#e6e5e5" offset="0"></stop><stop stop-color="#e6e5e5" offset="0.75"></stop></linearGradient><linearGradient x1="0.1" y1="0" x2="0" y2="1" id="SvgjsLinearGradient1082"><stop stop-color="#efeeee" offset="0"></stop><stop stop-color="#efeeee" offset="0.8333333333333334"></stop></linearGradient><linearGradient x1="0.1" y1="0" x2="0" y2="1" id="SvgjsLinearGradient1083"><stop stop-color="#f7f7f7" offset="0"></stop><stop stop-color="#f7f7f7" offset="0.9166666666666666"></stop></linearGradient></defs></svg>